<svg xmlns="http://www.w3.org/2000/svg" viewBox="0 0 44.14 9.27"><defs><style>.cls-1,.cls-2{fill:#fff;}.cls-2{font-size:8.31px;font-family:Montserrat-Bold, Montserrat;font-weight:700;}.cls-3{letter-spacing:-0.02em;}</style></defs><title>Asset 3</title><g id="Layer_2" data-name="Layer 2"><g id="Layer_1-2" data-name="Layer 1"><path class="cls-1" d="M4.46,1.24a3.08,3.08,0,0,0-2.11.85,1.23,1.23,0,0,0-1.14-.85A1.2,1.2,0,0,0,0,2.46,1.2,1.2,0,0,0,1.21,3.67a1.35,1.35,0,0,0,.29,0,2.23,2.23,0,0,0,0,.39A2.89,2.89,0,0,0,4.71,7a2.94,2.94,0,0,0,2.52-2.3,2.81,2.81,0,0,0,0-1,.5.5,0,0,1,.49-.56H9.68V1.24ZM1.19,2.7A.23.23,0,0,1,1,2.46a.23.23,0,0,1,.24-.25.23.23,0,0,1,.24.25A.23.23,0,0,1,1.19,2.7ZM4.34,5.61A1.46,1.46,0,1,1,5.8,4.15,1.46,1.46,0,0,1,4.34,5.61Z"/><circle class="cls-1" cx="4.34" cy="4.15" r="0.97"/><text class="cls-2" transform="translate(11.82 7.06)">TMa<tspan class="cls-3" x="18.2" y="0">k</tspan><tspan x="23.49" y="0">er</tspan></text></g></g></svg>