<?xml version="1.0" encoding="utf-8"?>
<!-- Generator: Adobe Illustrator 22.0.1, SVG Export Plug-In . SVG Version: 6.00 Build 0)  -->
<svg version="1.1" id="Layer_1" xmlns="http://www.w3.org/2000/svg" xmlns:xlink="http://www.w3.org/1999/xlink" x="0px" y="0px"
	 viewBox="0 0 48 48" style="enable-background:new 0 0 48 48;" xml:space="preserve">
<style type="text/css">
	.st0{fill:none;}
	.st1{fill:#FFFFFF;}
</style>
<g>
	<rect class="st0" width="48" height="48"/>
</g>
<g>
	<g>
		<g>
			<path class="st1" d="M22.5,12c-3.3,0-6.4,1.3-8.7,3.5c-0.7-2-2.5-3.5-4.7-3.5c-2.8,0-5,2.2-5,5s2.2,5,5,5c0.4,0,0.8-0.1,1.2-0.2
				c-0.1,0.5-0.2,1-0.2,1.6c-0.4,7.4,5.9,13.4,13.4,12.5c5.1-0.6,9.4-4.5,10.4-9.5c0.3-1.4,0.3-2.8,0.1-4.1c-0.2-1.2,0.8-2.3,2-2.3
				H44v-8H22.5z M9,18c-0.6,0-1-0.4-1-1s0.4-1,1-1s1,0.4,1,1S9.6,18,9,18z M22,30c-3.3,0-6-2.7-6-6s2.7-6,6-6s6,2.7,6,6
				S25.3,30,22,30z"/>
		</g>
		<g>
			<circle class="st1" cx="22" cy="24" r="4"/>
		</g>
	</g>
</g>
</svg>
